<?xml version="1.0" encoding="utf-8"?>
<svg version="1.0" width="1200.000000pt" height="1200.000000pt" viewBox="38.81 -76.067 1200 1200" preserveAspectRatio="xMidYMid meet" xmlns="http://www.w3.org/2000/svg">
  <g transform="matrix(0.1154, 0, 0, -0.117945, -72.616586, 1253.776996)" fill="#000000" stroke="none" style="">
    <path d="M4295 8568 c-97 -101 -332 -426 -370 -513 -22 -49 -24 -62 -15 -90 15 -45 43 -69 74 -61 18 4 45 41 109 148 47 79 102 168 122 198 l36 55 -6 -120 c-4 -66 -14 -201 -22 -300 -19 -215 -29 -1681 -16 -2395 8 -412 9 -437 28 -470 12 -19 36 -43 55 -55 33 -19 57 -20 420 -26 262 -5 468 -14 645 -29 403 -34 535 -28 1000 48 653 107 645 106 897 107 124 0 230 -4 234 -8 4 -4 -27 -41 -69 -81 -54 -51 -84 -90 -101 -127 -40 -90 -41 -106 -7 -139 16 -17 40 -30 53 -30 28 0 83 55 120 120 17 30 79 91 181 178 207 179 216 200 119 292 -116 110 -424 375 -453 389 -63 31 -108 -28 -74 -98 17 -37 55 -73 231 -225 54 -48 99 -92 99 -99 0 -9 -74 -12 -325 -13 -402 0 -598 -22 -1005 -109 -352 -75 -524 -84 -885 -47 -357 37 -513 45 -746 38 -213 -6 -222 -5 -239 14 -16 18 -20 51 -28 243 -16 354 -14 1865 2 2177 17 339 43 625 56 624 6 0 38 -45 72 -100 63 -99 111 -154 137 -154 21 0 54 47 61 84 5 26 -13 76 -100 275 -127 293 -139 315 -167 335 -40 28 -68 20 -123 -36z"/>
    <path d="M5640 8090 c-11 -7 3 -10 45 -10 42 0 56 3 45 10 -8 5 -28 10 -45 10 -16 0 -37 -5 -45 -10z"/>
    <path d="M4875 7317 c-16 -7 -40 -18 -52 -25 -52 -29 -51 -11 -55 -837 l-3 -770 22 -56 c38 -92 117 -150 207 -151 60 -1 100 24 121 74 19 49 39 449 51 1074 7 329 6 342 -14 410 -37 121 -105 257 -140 277 -34 19 -93 21 -137 4z"/>
    <path d="M6103 7315 c-61 -26 -61 -21 -75 -675 -18 -852 -18 -1016 5 -1062 28 -55 70 -68 226 -68 152 0 176 11 185 83 3 23 8 227 11 453 3 231 12 488 21 585 8 96 17 253 20 349 5 169 5 177 -18 220 -31 61 -77 84 -220 109 -64 12 -118 21 -120 21 -2 -1 -18 -7 -35 -15z"/>
    <path d="M6702 6546 c-60 -28 -61 -37 -64 -518 -2 -238 1 -452 6 -476 14 -72 33 -78 178 -58 149 21 184 35 202 78 28 66 48 779 25 862 -21 76 -85 109 -236 120 -58 5 -86 3 -111 -8z"/>
    <path d="M3001 4413 c-24 -21 -166 -387 -187 -483 -9 -43 -14 -132 -14 -267 0 -170 2 -204 16 -217 12 -13 40 -16 137 -16 67 0 129 5 137 10 12 7 16 36 18 125 l4 115 119 0 119 0 0 -109 c0 -145 -5 -141 160 -141 107 0 131 3 145 17 15 14 16 41 12 247 -5 261 2 231 -111 526 -38 99 -76 183 -88 193 -18 15 -45 17 -233 17 -188 0 -215 -2 -234 -17z m265 -265 c4 -6 22 -58 40 -115 l32 -103 -108 0 -108 0 25 83 c42 136 48 147 82 147 16 0 33 -5 37 -12z"/>
    <path d="M4041 4419 c-95 -19 -164 -70 -200 -149 -14 -30 -16 -81 -16 -335 0 -339 2 -353 69 -420 74 -73 100 -78 434 -83 218 -3 297 -1 308 8 11 10 14 55 14 254 0 175 -3 245 -12 254 -17 17 -269 17 -286 0 -8 -8 -12 -53 -12 -136 l0 -124 -86 3 c-71 3 -88 7 -100 23 -11 16 -14 63 -14 217 0 193 1 198 22 213 18 13 55 16 198 16 124 0 180 4 188 12 17 17 17 229 0 246 -14 14 -436 15 -507 1z"/>
    <path d="M5422 4418 c-17 -17 -17 -959 0 -976 17 -17 759 -17 776 0 9 9 12 80 12 260 0 234 -1 248 -19 258 -11 5 -71 10 -135 10 -91 0 -118 -3 -130 -16 -13 -12 -16 -40 -16 -140 l0 -124 -95 0 -95 0 0 358 c0 265 -3 361 -12 370 -17 17 -269 17 -286 0z"/>
    <path d="M6551 4413 c-24 -21 -166 -387 -187 -483 -9 -43 -14 -132 -14 -267 0 -170 2 -204 16 -217 12 -13 40 -16 137 -16 67 0 129 5 137 10 12 7 16 36 18 125 l4 115 119 0 119 0 0 -109 c0 -145 -5 -141 160 -141 107 0 131 3 145 17 15 14 16 41 12 247 -5 261 2 231 -111 526 -38 99 -76 183 -88 193 -18 15 -45 17 -233 17 -188 0 -215 -2 -234 -17z m265 -265 c4 -6 22 -58 40 -115 l32 -103 -108 0 -108 0 25 83 c42 136 48 147 82 147 16 0 33 -5 37 -12z"/>
    <path d="M7402 4418 c-9 -9 -12 -131 -12 -489 0 -400 2 -478 14 -488 11 -9 102 -11 348 -9 329 3 333 3 378 27 51 27 64 40 90 96 16 33 20 63 20 166 0 69 -5 141 -11 160 -17 50 -67 98 -115 110 l-41 10 33 33 c37 37 49 89 42 189 -7 112 -57 173 -158 196 -66 15 -573 14 -588 -1z m456 -240 c7 -7 12 -33 12 -59 0 -63 -22 -79 -107 -79 l-63 0 0 75 0 75 73 0 c43 0 78 -5 85 -12z m60 -360 c7 -7 12 -37 12 -68 0 -31 -5 -61 -12 -68 -8 -8 -48 -12 -115 -12 l-103 0 0 80 0 80 103 0 c67 0 107 -4 115 -12z"/>
    <path d="M8575 4423 c-99 -22 -167 -78 -190 -156 -18 -59 -20 -252 -4 -310 14 -50 60 -101 111 -121 22 -10 102 -26 177 -38 75 -11 142 -25 149 -30 15 -13 16 -50 0 -66 -9 -9 -71 -12 -218 -12 -147 0 -209 -3 -218 -12 -17 -17 -16 -208 1 -232 12 -16 35 -17 297 -14 276 3 286 4 333 27 65 32 113 91 128 156 19 83 8 270 -19 322 -40 77 -84 97 -271 124 -74 11 -141 25 -148 31 -8 6 -13 23 -11 37 l3 26 186 5 c137 4 190 9 202 19 24 19 25 212 1 235 -13 14 -49 16 -252 15 -130 -1 -246 -3 -257 -6z"/>
    <path d="M4800 4060 c-18 -18 -20 -33 -20 -129 0 -86 3 -113 16 -125 13 -14 47 -16 222 -16 114 0 214 5 222 10 12 7 15 34 15 130 0 109 -2 123 -19 136 -16 11 -63 14 -218 14 -185 0 -199 -1 -218 -20z"/>
  </g>
  <path d="M 558.957 252.279 C 551.918 257.386 551.918 256.404 550.302 384.861 C 548.225 552.208 548.225 584.421 550.879 593.457 C 554.11 604.26 558.957 606.813 576.959 606.813 C 594.5 606.813 597.27 604.651 598.308 590.509 C 598.655 585.993 599.232 545.923 599.578 501.532 C 599.924 456.16 600.963 405.681 602.001 386.629 C 602.924 367.773 603.963 336.934 604.309 318.079 C 604.886 284.884 604.886 283.312 602.232 274.867 C 598.655 262.885 593.346 258.367 576.844 253.458 C 569.458 251.1 563.227 249.333 562.996 249.333 C 562.765 249.529 560.919 250.708 558.957 252.279 Z" style=""/>
</svg>